<?xml version="1.0" standalone="no"?>
<!DOCTYPE svg PUBLIC "-//W3C//DTD SVG 20010904//EN"
 "http://www.w3.org/TR/2001/REC-SVG-20010904/DTD/svg10.dtd">
<svg version="1.0" xmlns="http://www.w3.org/2000/svg"
 width="666.000000pt" height="374.000000pt" viewBox="0 0 666.000000 374.000000"
 preserveAspectRatio="xMidYMid meet">

<g transform="translate(0.000000,374.000000) scale(0.100000,-0.100000)"
fill="#000000" stroke="none">
<path d="M3200 2973 c-166 -25 -280 -60 -342 -105 -34 -24 -92 -48 -118 -48
-22 0 -116 -88 -112 -106 3 -12 -9 -18 -30 -15 -18 2 -120 -112 -176 -198 -34
-52 -62 -98 -62 -102 0 -5 -8 -17 -18 -27 -20 -20 -61 -127 -61 -157 1 -11 -6
-38 -14 -60 -20 -55 -33 -175 -18 -175 6 0 11 -19 11 -46 0 -27 -4 -43 -10
-39 -6 4 -10 -22 -10 -72 0 -60 5 -87 21 -117 11 -21 18 -45 14 -53 -3 -9 2
-21 12 -28 14 -11 15 -16 4 -28 -10 -13 -8 -24 14 -64 15 -26 38 -60 52 -75
14 -14 22 -31 19 -36 -3 -5 10 -36 29 -68 20 -32 33 -65 30 -72 -8 -22 114
-158 149 -166 22 -5 27 -10 23 -25 -3 -12 3 -27 17 -39 44 -40 174 -122 192
-121 14 0 11 3 -8 11 -31 11 -34 20 -15 40 20 22 18 38 -6 47 -29 11 -71 59
-122 139 -21 34 -42 62 -46 62 -4 0 -26 19 -48 42 -23 22 -41 37 -42 32 0 -5
-2 -17 -4 -27 -4 -20 47 -83 73 -91 18 -6 47 -66 33 -66 -17 0 -201 197 -201
214 0 3 9 6 20 6 29 0 24 26 -11 57 -24 22 -29 33 -24 53 4 13 11 27 16 31 5
3 0 14 -11 24 -18 16 -20 16 -20 2 0 -14 -4 -15 -24 -6 -20 9 -24 20 -29 70
-3 33 -15 77 -26 99 -25 49 -25 47 -5 47 9 0 19 -9 22 -19 8 -33 24 -20 16 15
-9 43 -23 76 -23 58 -1 -11 -4 -12 -12 -4 -19 19 -38 150 -38 262 -1 89 1 102
12 87 16 -22 50 -17 55 7 3 12 -4 20 -17 24 -12 3 -21 9 -21 14 0 14 61 163
71 173 5 6 9 19 9 29 0 24 37 77 54 77 6 0 13 10 13 23 5 57 12 66 103 118 10
5 15 24 15 51 0 31 4 43 15 43 8 0 21 4 28 8 6 5 12 4 12 -2 0 -5 -4 -13 -10
-16 -5 -3 -10 -14 -9 -23 0 -14 2 -14 6 -2 4 8 33 46 67 83 43 49 65 67 79 63
12 -3 38 12 74 41 38 31 67 46 91 49 22 2 42 11 52 25 14 17 23 20 48 14 22
-4 51 0 89 13 32 11 79 23 106 27 26 4 47 11 47 16 0 9 -23 10 -70 2z"/>
<path d="M3314 2965 c28 -15 51 -12 41 6 -4 5 -21 9 -38 9 l-32 0 29 -15z"/>
<path d="M3434 2964 c-7 -3 -10 -13 -7 -24 4 -16 8 -17 23 -8 14 9 22 9 32 0
9 -7 19 -8 28 -2 23 15 70 12 76 -5 3 -8 16 -14 27 -14 40 0 82 -13 115 -38
33 -24 42 -20 20 9 -7 9 -33 22 -58 28 -24 7 -53 18 -64 26 -12 8 -45 14 -78
14 -31 0 -60 5 -63 10 -6 10 -31 12 -51 4z"/>
<path d="M3388 2943 c7 -3 16 -2 19 1 4 3 -2 6 -13 5 -11 0 -14 -3 -6 -6z"/>
<path d="M3852 2801 c37 -31 77 -55 84 -48 9 9 -77 77 -96 77 -18 0 -16 -4 12
-29z"/>
<path d="M4010 2695 c0 -15 18 -40 24 -34 3 3 -1 14 -9 25 -8 10 -14 15 -15 9z"/>
<path d="M4090 2612 c0 -13 23 -32 39 -32 11 0 10 4 -4 20 -19 21 -35 26 -35
12z"/>
<path d="M4149 2521 c17 -16 31 -38 31 -49 0 -11 7 -25 15 -32 20 -17 19 -1
-4 53 -17 40 -36 57 -63 57 -6 0 4 -13 21 -29z"/>
<path d="M2470 2490 c0 -5 5 -10 10 -10 6 0 10 5 10 10 0 6 -4 10 -10 10 -5 0
-10 -4 -10 -10z"/>
<path d="M4260 2332 c0 -5 9 -17 20 -27 19 -17 19 -17 7 9 -12 25 -27 35 -27
18z"/>
<path d="M4290 2256 c0 -14 5 -26 10 -26 6 0 10 9 10 19 0 11 -4 23 -10 26 -6
4 -10 -5 -10 -19z"/>
<path d="M4300 2160 c0 -5 5 -10 10 -10 6 0 10 5 10 10 0 6 -4 10 -10 10 -5 0
-10 -4 -10 -10z"/>
<path d="M4310 2088 c0 -9 5 -20 10 -23 13 -8 13 5 0 25 -8 13 -10 13 -10 -2z"/>
<path d="M2320 1927 c0 -14 5 -29 10 -32 7 -4 8 3 4 22 -9 38 -14 42 -14 10z"/>
<path d="M4426 1884 c-4 -9 -4 -19 -1 -22 2 -3 7 3 11 12 4 9 4 19 1 22 -2 3
-7 -3 -11 -12z"/>
<path d="M2949 1883 c-21 -5 -31 -82 -22 -165 l6 -59 91 3 91 3 3 99 c3 117
-13 152 -23 50 -8 -89 -15 -123 -24 -129 -5 -2 -34 1 -65 7 -53 12 -56 14 -56
43 0 16 6 56 14 88 14 59 12 66 -15 60z"/>
<path d="M3384 1882 c-7 -4 -15 -33 -19 -64 l-7 -58 87 0 87 0 -7 -32 c-10
-46 -17 -51 -61 -40 -97 24 -94 25 -94 -3 l0 -26 93 3 92 3 3 60 3 60 -81 -3
c-78 -3 -80 -3 -80 20 0 35 11 46 53 52 113 18 113 18 92 26 -25 11 -146 12
-161 2z"/>
<path d="M3602 1882 c-9 -6 -12 -36 -10 -113 l3 -104 92 -3 91 -3 8 57 c8 69
-1 155 -18 166 -17 10 -149 10 -166 0z m153 -94 c-8 -84 -19 -111 -43 -104 -9
3 -34 8 -55 12 -21 3 -41 12 -44 20 -2 7 1 38 7 69 13 63 26 73 99 74 l44 1
-8 -72z"/>
<path d="M3839 1883 c-10 -2 -20 -14 -23 -26 -8 -29 -7 -146 0 -174 10 -38 24
-15 25 40 1 29 4 63 8 76 6 23 9 22 59 -35 30 -35 52 -69 52 -82 0 -18 5 -23
23 -20 21 3 22 8 25 102 3 117 -12 150 -22 47 -4 -39 -11 -73 -16 -76 -14 -9
-112 108 -106 127 5 21 -2 26 -25 21z"/>
<path d="M2707 1873 c-11 -10 -8 -201 3 -208 6 -4 10 6 10 22 0 67 7 73 77 73
l65 0 -7 -50 c-6 -45 -5 -50 13 -50 22 0 32 33 32 110 0 101 -26 152 -32 63
l-3 -48 -65 0 c-71 0 -70 -1 -56 68 4 21 2 27 -13 27 -10 0 -21 -3 -24 -7z"/>
<path d="M3156 1858 c-7 -30 -7 -146 0 -175 6 -22 11 -23 95 -23 110 0 112 8
32 88 -32 32 -69 75 -83 95 -29 43 -36 45 -44 15z m131 -146 c9 -12 13 -25 10
-29 -3 -3 -32 1 -64 9 l-57 14 3 49 c1 28 5 54 9 59 5 9 65 -53 99 -102z"/>
<path d="M4379 1813 c0 -16 0 -47 1 -70 1 -42 -14 -60 -23 -25 -7 29 -37 -51
-44 -121 -5 -47 -8 -55 -13 -33 -4 25 -10 18 -57 -75 -29 -57 -77 -136 -107
-175 -39 -53 -55 -84 -60 -118 -4 -25 -12 -46 -17 -46 -5 0 -21 -27 -36 -60
-14 -33 -31 -60 -38 -60 -7 0 -33 -16 -59 -36 -48 -36 -73 -43 -36 -9 21 19
28 41 9 29 -8 -4 -9 1 -4 15 6 21 2 20 -64 -13 -77 -39 -101 -44 -101 -21 0
12 -4 13 -25 3 -19 -9 -25 -19 -25 -44 0 -34 -9 -45 -44 -50 -12 -2 -31 -6
-43 -10 -15 -4 -23 -2 -23 6 0 9 -3 10 -13 2 -19 -16 -108 -11 -102 6 5 15
-34 7 -79 -15 -39 -20 -156 -9 -156 14 0 12 -7 14 -29 10 -16 -4 -70 -9 -120
-13 l-91 -7 0 32 c0 30 -1 31 -47 31 -77 0 -99 -31 -33 -45 16 -4 33 -11 36
-17 5 -8 -1 -9 -17 -4 -13 4 -35 10 -49 13 l-25 5 25 -21 c14 -11 32 -21 40
-21 8 0 31 -8 50 -18 50 -27 142 -34 209 -16 31 8 58 19 59 24 6 17 82 12 82
-5 0 -16 -49 -45 -77 -45 -16 -1 -16 -2 -2 -10 22 -13 89 7 89 26 0 8 10 18
23 23 22 8 197 22 197 15 0 -11 -64 -34 -79 -29 -27 8 -50 -4 -48 -25 1 -21
-6 -22 132 12 102 25 229 63 280 86 130 56 340 242 427 378 118 184 199 458
158 535 -15 27 -30 23 -31 -8z"/>
<path d="M2385 1630 c3 -5 14 -10 23 -10 15 0 15 2 2 10 -20 13 -33 13 -25 0z"/>
<path d="M2596 1575 c-12 -32 -7 -36 40 -29 l45 6 -3 -96 c-2 -72 0 -96 10
-96 9 0 12 27 12 100 l0 100 41 0 c28 0 39 4 37 13 -3 8 -33 13 -90 15 -71 2
-87 0 -92 -13z"/>
<path d="M2813 1583 c-16 -6 -19 -223 -3 -223 6 0 10 17 10 38 0 56 11 66 73
66 31 1 58 -2 62 -6 4 -4 3 -27 -3 -52 -9 -44 -9 -46 13 -46 21 0 24 6 31 56
8 69 -1 155 -18 166 -14 8 -145 10 -165 1z m157 -63 l0 -40 -70 0 c-73 0 -76
2 -61 44 10 25 29 32 94 35 37 1 37 1 37 -39z"/>
<path d="M3049 1583 c-31 -8 -36 -223 -5 -223 6 0 20 16 31 35 10 20 47 64 82
98 34 34 63 68 63 75 0 22 -25 13 -42 -15 -26 -44 -115 -139 -123 -131 -7 7 9
121 21 153 6 15 2 16 -27 8z"/>
<path d="M3247 1583 c-11 -10 -8 -211 3 -218 6 -4 10 13 10 43 l0 49 39 7 c53
8 101 -2 101 -23 0 -9 -4 -31 -9 -49 -9 -30 -8 -32 14 -32 21 0 25 6 31 46 7
49 1 155 -11 173 -7 12 -167 16 -178 4z m161 -60 l-3 -38 -69 -3 c-67 -3 -68
-3 -62 20 3 13 6 28 6 35 0 12 29 19 93 22 l38 1 -3 -37z"/>
<path d="M3477 1583 c-21 -35 -17 -223 4 -223 5 0 9 23 9 50 0 33 4 50 13 50
6 0 21 3 32 6 19 5 34 -11 102 -105 2 -3 9 1 15 7 9 9 3 21 -27 52 l-39 40 37
0 37 0 0 53 c0 29 -5 58 -12 65 -13 13 -164 17 -171 5z m163 -47 c0 -50 -8
-56 -77 -56 l-64 0 3 32 c3 36 22 45 96 47 38 1 42 -1 42 -23z"/>
<path d="M3702 1582 c-9 -6 -12 -36 -10 -113 l3 -104 93 -3 c102 -3 125 12 35
23 -96 11 -103 14 -103 45 0 22 6 29 33 38 l32 10 -33 1 c-32 1 -33 2 -27 34
4 17 9 33 10 35 1 2 35 6 74 9 97 8 88 27 -15 31 -43 1 -85 -2 -92 -6z"/>
<path d="M3920 1571 c-5 -11 -10 -41 -10 -67 l0 -47 55 7 c83 9 105 1 105 -40
0 -33 -1 -34 -37 -34 -21 0 -56 5 -78 10 -22 5 -41 8 -42 7 -1 -2 0 -13 4 -25
5 -22 10 -23 97 -20 l91 3 3 60 3 60 -81 -3 -81 -4 3 33 c3 38 22 46 101 48
35 1 47 5 47 16 0 12 -16 15 -85 15 -73 0 -86 -3 -95 -19z"/>
<path d="M2515 1380 c3 -5 13 -10 21 -10 8 0 12 5 9 10 -3 6 -13 10 -21 10 -8
0 -12 -4 -9 -10z"/>
<path d="M2876 1031 c5 -5 23 -12 39 -16 30 -6 30 -6 -4 10 -38 17 -49 19 -35
6z"/>
<path d="M2998 993 c7 -3 16 -2 19 1 4 3 -2 6 -13 5 -11 0 -14 -3 -6 -6z"/>
<path d="M3040 940 c0 -5 5 -10 11 -10 5 0 7 5 4 10 -3 6 -8 10 -11 10 -2 0
-4 -4 -4 -10z"/>
<path d="M3283 933 c-14 -5 -18 -33 -5 -33 10 0 32 22 32 32 0 9 -8 9 -27 1z"/>
<path d="M3321 800 l-23 -20 34 0 c27 0 34 4 34 20 0 25 -14 25 -45 0z"/>
</g>
</svg>
