<?xml version="1.0" standalone="no"?>
<!DOCTYPE svg PUBLIC "-//W3C//DTD SVG 20010904//EN"
 "http://www.w3.org/TR/2001/REC-SVG-20010904/DTD/svg10.dtd">
<svg version="1.0" xmlns="http://www.w3.org/2000/svg"
 width="816.000000pt" height="1170.000000pt" viewBox="0 0 816.000000 1170.000000"
 preserveAspectRatio="xMidYMid meet">

<g transform="translate(0.000000,1170.000000) scale(0.100000,-0.100000)"
fill="#000000" stroke="none">
<path d="M3115 10904 c-189 -19 -259 -29 -385 -54 -262 -52 -497 -133 -744
-257 -900 -450 -1503 -1311 -1628 -2323 -17 -137 -17 -544 0 -680 74 -593 303
-1125 675 -1571 457 -545 1092 -910 1789 -1028 367 -62 787 -52 1148 29 1132
252 2019 1146 2264 2280 39 179 56 328 63 540 9 286 -18 545 -82 803 -29 114
-115 381 -121 374 -2 -2 3 -24 11 -48 31 -87 75 -277 104 -454 54 -328 67
-522 51 -765 -49 -735 -343 -1385 -859 -1901 -340 -339 -724 -576 -1176 -722
-1159 -376 -2426 3 -3199 956 -329 406 -530 868 -622 1427 -25 150 -30 570
-10 749 61 524 253 1010 562 1424 495 661 1215 1077 2030 1172 169 20 500 20
672 0 171 -20 494 -84 647 -128 66 -20 121 -34 123 -32 5 4 -159 62 -270 95
-125 37 -304 75 -449 95 -108 15 -508 28 -594 19z"/>
<path d="M3223 10765 c-1015 -136 -1847 -820 -2168 -1780 -95 -284 -128 -496
-129 -820 -1 -273 14 -409 69 -635 52 -210 171 -526 215 -570 13 -13 45 -18
146 -23 71 -3 171 -13 223 -22 52 -9 98 -14 102 -13 5 2 -19 45 -52 96 -34 51
-59 96 -56 98 17 17 386 -45 528 -89 l75 -24 -27 81 c-88 257 -140 579 -138
866 0 125 12 287 22 296 9 10 237 -111 362 -194 197 -129 390 -294 533 -455
29 -32 52 -56 52 -52 0 15 42 214 56 265 73 263 188 521 332 745 53 82 181
255 189 255 9 0 25 -22 121 -165 194 -287 350 -661 407 -975 9 -52 19 -101 21
-109 3 -8 50 31 127 105 133 130 269 237 417 329 108 66 361 192 407 201 l31
6 8 -78 c12 -114 9 -432 -5 -549 -17 -137 -54 -320 -90 -438 -23 -77 -26 -97
-15 -93 95 37 554 86 554 60 0 -11 -86 -164 -119 -214 -17 -24 -29 -46 -27
-48 2 -2 64 17 138 41 73 24 186 57 250 73 l117 29 46 99 c95 204 181 505 217
756 17 125 17 545 0 665 -72 501 -257 935 -560 1315 -94 118 -289 314 -402
404 -214 169 -494 328 -740 418 -140 52 -364 110 -515 134 -137 23 -581 28
-722 9z"/>
<path d="M3497 8632 c-224 -312 -376 -654 -446 -1007 -32 -160 -33 -150 36
-245 210 -292 379 -673 443 -1002 8 -37 15 -66 17 -64 2 2 15 55 28 117 76
362 221 684 436 968 50 65 51 67 45 121 -28 240 -135 567 -271 828 -63 121
-194 330 -219 351 -10 8 -26 -7 -69 -67z"/>
<path d="M2065 8063 c-22 -284 26 -649 124 -952 l46 -145 160 -80 c240 -121
389 -229 575 -415 l106 -106 -23 77 c-31 108 -69 295 -84 413 -14 116 -18 415
-6 527 l8 78 -173 173 c-217 218 -383 342 -640 481 l-86 47 -7 -98z"/>
<path d="M4915 8061 c-283 -135 -589 -363 -755 -561 l-41 -48 11 -159 c17
-245 -8 -530 -70 -788 -10 -44 -21 -87 -25 -96 -3 -8 61 50 142 130 208 205
393 330 623 422 58 23 108 47 112 53 30 44 101 338 122 506 32 247 29 582 -4
587 -8 1 -60 -20 -115 -46z"/>
<path d="M3005 7248 c-11 -226 15 -467 75 -708 51 -201 83 -282 148 -372 80
-111 152 -228 229 -373 l64 -120 -3 115 c-1 63 -1 171 0 240 7 285 -120 724
-305 1055 -49 88 -190 305 -198 305 -2 0 -6 -64 -10 -142z"/>
<path d="M4013 7317 c-164 -230 -296 -519 -367 -802 -61 -242 -69 -342 -52
-662 l9 -171 83 166 c45 92 121 225 168 296 50 76 94 155 105 190 89 272 139
641 125 919 -4 70 -10 129 -13 131 -4 3 -29 -28 -58 -67z"/>
<path d="M1708 6968 c27 -40 56 -78 63 -84 8 -6 59 -23 114 -38 107 -29 291
-98 372 -140 l51 -25 -51 112 c-27 62 -53 116 -57 120 -24 27 -333 106 -479
122 l-63 7 50 -74z"/>
<path d="M5350 7033 c-141 -10 -376 -55 -396 -77 -6 -6 -23 -42 -39 -81 -34
-83 -111 -241 -154 -313 -17 -29 -29 -52 -26 -52 2 0 57 29 122 65 97 53 357
174 425 198 18 6 94 114 148 210 l32 57 -34 -2 c-18 -1 -53 -3 -78 -5z"/>
<path d="M4800 6906 c-246 -107 -423 -229 -611 -423 -155 -159 -198 -221 -253
-359 -26 -67 -76 -179 -112 -249 l-64 -128 114 110 c195 187 422 369 648 518
99 65 110 76 156 150 92 149 224 416 204 414 -4 0 -41 -15 -82 -33z"/>
<path d="M5715 6865 c-252 -73 -377 -121 -400 -152 -184 -255 -458 -521 -752
-731 -195 -139 -534 -327 -746 -413 -32 -13 -54 -25 -49 -27 18 -6 242 37 377
73 301 79 613 208 865 358 252 150 541 437 733 730 70 106 131 208 125 207 -2
-1 -70 -21 -153 -45z"/>
<path d="M1250 6884 c0 -19 120 -207 204 -317 236 -316 543 -570 897 -746 314
-157 662 -257 994 -286 l70 -7 -145 69 c-589 281 -1109 686 -1445 1127 -44 58
-87 107 -95 110 -80 29 -480 70 -480 50z"/>
<path d="M2279 6866 c5 -13 32 -68 60 -123 49 -99 50 -100 123 -143 225 -132
434 -295 634 -495 l141 -140 -49 110 c-27 61 -53 120 -58 131 -24 59 -233 277
-374 391 -130 105 -326 227 -448 278 l-38 15 9 -24z"/>
<path d="M1856 6763 c154 -192 364 -408 534 -550 189 -157 457 -337 675 -453
114 -60 113 -59 -10 35 -49 38 -164 143 -256 234 -169 170 -287 316 -393 487
l-56 91 -103 48 c-147 68 -383 155 -422 155 -4 0 10 -21 31 -47z"/>
<path d="M5160 6666 c-109 -48 -322 -157 -416 -213 -73 -43 -90 -59 -160 -153
-109 -146 -378 -413 -534 -529 -69 -52 -127 -96 -130 -98 -12 -12 246 121 336
173 308 177 605 414 812 647 88 98 177 207 170 207 -1 0 -37 -15 -78 -34z"/>
<path d="M2516 6443 c182 -264 416 -502 684 -693 89 -64 254 -170 264 -170 10
0 -99 150 -181 250 -115 139 -332 354 -468 463 -109 88 -339 247 -357 247 -5
0 21 -44 58 -97z"/>
<path d="M4395 6225 c-200 -146 -363 -284 -549 -468 -149 -147 -165 -165 -121
-142 164 90 390 261 554 419 113 110 267 287 249 286 -2 0 -61 -43 -133 -95z"/>
<path d="M3777 5918 c-66 -122 -89 -169 -84 -174 2 -2 34 55 71 126 37 72 65
130 63 130 -3 0 -25 -37 -50 -82z"/>
<path d="M3321 5918 c31 -62 100 -178 106 -178 3 0 -6 19 -20 43 -13 23 -41
72 -61 110 -42 74 -59 92 -25 25z"/>
<path d="M1934 4706 l-91 -53 -56 29 c-89 44 -159 59 -287 59 -230 0 -419 -83
-546 -239 -95 -117 -138 -236 -137 -387 0 -116 21 -187 77 -264 66 -90 160
-130 186 -80 19 34 3 62 -60 108 -71 51 -95 91 -110 187 -13 80 -5 165 21 243
59 172 216 307 397 342 122 23 270 0 355 -57 l38 -25 -83 -83 c-93 -93 -178
-204 -255 -334 -29 -48 -59 -96 -67 -107 -14 -20 -14 -19 -26 7 -15 32 -45 45
-65 28 -20 -17 -19 -50 5 -112 l20 -52 -47 -80 c-100 -175 -204 -315 -283
-383 -79 -69 -175 -92 -239 -58 -33 17 -41 33 -41 82 0 30 7 43 41 72 109 96
109 96 109 144 0 126 -159 170 -274 76 -72 -60 -104 -192 -72 -301 35 -120
163 -216 318 -239 280 -41 561 146 693 461 10 25 20 46 21 48 1 2 28 -5 60
-14 81 -24 213 -24 284 -1 117 39 238 153 281 267 64 167 11 396 -129 550 -64
72 -66 67 40 121 60 30 82 56 72 83 -11 29 -57 17 -150 -38z m-96 -283 c35
-76 43 -220 17 -309 -36 -125 -118 -227 -204 -253 -37 -11 -131 -7 -131 5 0
22 105 287 155 391 57 119 118 223 131 223 3 0 17 -26 32 -57z"/>
<path d="M6223 4582 c-16 -21 -57 -91 -93 -155 -162 -293 -345 -556 -492 -708
-125 -129 -185 -174 -205 -157 -27 22 -5 87 102 294 121 235 126 255 72 325
-45 59 -85 82 -117 66 -19 -9 -61 -77 -82 -130 -2 -4 -23 -1 -47 8 -64 22
-178 20 -248 -6 -94 -35 -157 -84 -232 -178 -88 -112 -299 -323 -356 -357 -54
-31 -81 -29 -77 6 2 14 46 113 98 220 52 107 97 211 100 231 5 31 2 39 -30 67
-22 19 -48 32 -64 32 -40 0 -163 -76 -280 -174 -56 -47 -104 -86 -107 -86 -2
0 9 28 25 63 48 101 49 120 7 162 -22 22 -45 35 -61 35 -54 0 -175 -75 -300
-186 -48 -44 -104 -92 -124 -109 l-36 -30 27 46 c53 89 44 196 -20 256 -62 59
-94 44 -188 -88 -83 -117 -227 -299 -236 -299 -5 0 -47 -36 -93 -80 -47 -44
-93 -80 -102 -80 -27 0 -12 64 50 208 92 215 94 235 26 321 -34 42 -46 51 -73
51 -53 0 -92 -34 -174 -151 -161 -230 -340 -439 -377 -439 -39 0 -25 47 90
294 87 186 101 240 69 266 -21 18 -61 15 -151 -10 -88 -25 -151 -21 -139 8 4
9 9 36 12 58 4 34 1 46 -17 64 -19 19 -30 22 -71 18 -34 -4 -58 -13 -76 -29
-59 -55 -81 -163 -43 -211 l19 -25 -50 -74 c-58 -84 -145 -192 -183 -228 -40
-38 -31 -81 16 -81 16 0 83 75 205 228 62 77 114 132 124 132 9 0 27 -8 39
-18 34 -28 21 -73 -51 -167 -166 -219 -208 -328 -156 -406 66 -99 179 -84 356
46 76 56 193 173 230 230 14 22 50 69 80 105 61 73 60 59 -2 -65 -110 -220
-117 -323 -26 -371 40 -20 87 -12 159 28 118 66 297 224 353 313 14 22 55 72
92 110 l65 70 -85 -170 c-47 -93 -98 -194 -115 -224 -34 -62 -38 -101 -12
-124 27 -25 71 -20 127 13 69 41 79 50 179 175 101 125 203 241 260 297 36 36
76 50 76 28 0 -16 -37 -87 -140 -265 -50 -88 -94 -175 -97 -193 -7 -41 18 -72
59 -72 60 0 163 70 219 148 54 75 242 293 297 345 51 47 82 60 82 33 0 -8 -27
-65 -60 -128 -101 -193 -132 -304 -96 -350 16 -22 58 -38 99 -38 82 0 133 31
315 192 57 50 105 88 108 85 3 -2 -3 -32 -12 -65 -20 -71 -14 -119 21 -160 35
-42 75 -56 145 -49 65 6 116 30 212 104 31 23 58 43 60 43 2 0 2 -20 0 -45 -3
-39 0 -49 26 -74 62 -62 142 -50 262 40 114 86 292 260 363 354 33 44 64 85
69 90 6 6 -20 -48 -56 -119 -66 -128 -106 -236 -106 -283 0 -34 27 -77 60 -97
50 -29 118 -21 211 26 72 36 101 59 203 162 116 118 138 148 129 174 -12 30
-55 11 -129 -58 -50 -47 -83 -70 -100 -70 -49 0 -31 48 162 444 102 210 188
393 191 409 9 42 -23 111 -72 156 -25 23 -49 41 -55 41 -5 0 -22 -17 -37 -38z
m-917 -627 c15 -60 -78 -229 -186 -336 -106 -107 -176 -85 -121 38 30 65 116
187 182 258 48 51 68 65 90 65 22 0 30 -6 35 -25z"/>
<path d="M3262 4592 c-108 -32 -187 -231 -116 -297 57 -53 163 -40 229 29 64
67 86 177 45 229 -30 38 -100 55 -158 39z"/>
<path d="M524 3081 c-39 -24 -64 -76 -64 -135 0 -99 52 -156 144 -156 41 0 53
5 82 34 19 19 34 41 34 49 0 17 -43 32 -48 17 -2 -5 -12 -20 -22 -32 -20 -25
-78 -30 -104 -9 -39 32 -42 139 -6 183 24 30 86 30 110 0 10 -12 29 -22 44
-22 30 0 30 1 15 33 -25 55 -124 75 -185 38z"/>
<path d="M850 3087 c-45 -23 -70 -73 -70 -141 0 -103 50 -156 146 -156 86 0
144 63 144 157 0 49 -33 115 -69 136 -34 20 -115 22 -151 4z m138 -63 c27 -31
31 -117 6 -152 -39 -56 -124 -47 -150 14 -50 120 63 229 144 138z"/>
<path d="M1130 2945 l0 -155 25 0 25 0 0 101 c0 55 4 98 9 95 5 -3 35 -49 66
-101 51 -84 61 -95 86 -95 l29 0 0 155 0 155 -25 0 -25 0 0 -100 c0 -55 -3
-100 -7 -100 -5 0 -35 45 -68 100 -53 88 -63 100 -87 100 l-28 0 0 -155z"/>
<path d="M1465 3075 c-30 -29 -33 -74 -7 -104 9 -12 49 -31 87 -44 54 -17 71
-27 73 -43 4 -25 -15 -42 -56 -50 -26 -5 -36 -1 -62 25 -31 30 -70 42 -70 21
0 -25 33 -72 56 -80 61 -24 163 -3 178 35 13 34 6 85 -14 105 -10 10 -45 27
-77 36 -32 9 -65 23 -73 31 -13 13 -12 16 9 34 31 26 57 24 85 -6 23 -24 66
-35 66 -15 0 23 -24 59 -47 69 -13 6 -46 11 -74 11 -40 0 -55 -5 -74 -25z"/>
<path d="M1740 2974 c0 -125 0 -126 29 -155 26 -26 36 -29 90 -29 49 0 65 4
88 24 28 24 28 26 32 155 l3 131 -31 0 -31 0 0 -118 c0 -103 -3 -121 -18 -135
-25 -23 -68 -21 -92 3 -18 18 -20 33 -20 135 l0 115 -25 0 -25 0 0 -126z"/>
<path d="M2260 3075 c0 -23 3 -25 50 -25 l50 0 0 -130 0 -130 25 0 25 0 0 130
0 130 45 0 c41 0 45 2 45 25 l0 25 -120 0 -120 0 0 -25z"/>
<path d="M2586 3069 c-66 -61 -71 -172 -11 -238 30 -32 38 -35 98 -39 62 -4
66 -3 101 29 67 62 70 183 5 245 -24 23 -40 29 -93 32 -61 4 -66 3 -100 -29z
m163 -46 c20 -23 23 -35 19 -84 -7 -90 -60 -129 -128 -94 -35 18 -50 49 -50
103 1 101 96 146 159 75z"/>
<path d="M2890 2946 l0 -156 25 0 c24 0 25 2 25 65 0 65 0 65 28 65 31 0 53
-20 97 -87 22 -34 34 -43 56 -43 16 0 29 2 29 5 0 9 -52 89 -73 112 l-20 22
26 10 c48 19 63 89 28 132 -17 22 -28 24 -120 27 l-101 4 0 -156z m184 82 c21
-34 -4 -53 -73 -56 l-61 -3 0 41 0 41 61 -3 c46 -2 65 -8 73 -20z"/>
<path d="M3200 2945 l0 -155 30 0 30 0 0 155 0 155 -30 0 -30 0 0 -155z"/>
<path d="M3354 2945 l-62 -155 29 0 c23 0 31 7 43 35 15 35 15 35 81 35 66 0
66 0 81 -35 12 -29 20 -35 43 -35 l29 0 -62 153 c-59 144 -64 152 -92 155 -29
3 -30 1 -90 -153z m109 43 c8 -24 18 -51 22 -60 6 -16 1 -18 -39 -18 -25 0
-46 2 -46 5 0 8 41 115 45 115 2 0 10 -19 18 -42z"/>
<path d="M3811 3078 c-5 -13 -30 -77 -56 -143 -26 -66 -49 -126 -52 -132 -3
-9 5 -13 25 -13 26 0 32 5 42 35 l12 35 68 0 68 0 12 -35 c10 -30 16 -35 42
-35 20 0 28 4 25 13 -116 293 -118 297 -148 297 -21 0 -32 -6 -38 -22z m54
-85 c33 -79 32 -83 -18 -83 l-46 0 22 60 c12 33 23 60 24 60 2 0 10 -17 18
-37z"/>
<path d="M4040 2945 l0 -155 25 0 25 0 0 127 c0 73 4 123 9 118 5 -6 21 -63
37 -127 27 -114 29 -118 55 -118 26 0 28 4 54 113 15 61 32 119 36 127 5 9 9
-39 9 -112 l0 -128 25 0 25 0 0 155 0 155 -45 0 c-50 0 -42 13 -81 -142 -9
-37 -20 -66 -24 -63 -4 3 -13 26 -19 52 -7 27 -19 72 -27 101 l-15 52 -45 0
-44 0 0 -155z"/>
<path d="M4410 2945 l0 -155 90 0 c129 0 160 19 160 95 0 23 -7 39 -24 52 -23
19 -23 19 -5 42 11 13 19 31 19 41 0 59 -41 80 -155 80 l-85 0 0 -155z m178
73 c4 -34 -24 -50 -81 -46 -41 3 -42 4 -45 41 l-3 38 63 -3 c60 -3 63 -4 66
-30z m4 -105 c21 -19 23 -44 6 -61 -7 -7 -39 -12 -75 -12 l-63 0 0 45 0 45 57
0 c38 0 62 -5 75 -17z"/>
<path d="M4720 2945 l0 -155 30 0 30 0 0 155 0 155 -30 0 -30 0 0 -155z"/>
<path d="M4850 2945 l0 -155 115 0 115 0 0 25 c0 25 -1 25 -90 25 l-90 0 0 45
0 45 80 0 c79 0 80 0 80 25 0 25 -1 25 -80 25 l-80 0 0 35 0 35 85 0 c84 0 85
0 85 25 l0 25 -110 0 -110 0 0 -155z"/>
<path d="M5140 2945 l0 -155 25 0 25 0 0 101 c0 55 4 98 9 95 5 -3 35 -49 66
-101 51 -84 61 -95 86 -95 l29 0 0 155 0 155 -25 0 -25 0 0 -100 c0 -55 -3
-100 -7 -100 -5 0 -35 45 -68 100 -53 88 -63 100 -87 100 l-28 0 0 -155z"/>
<path d="M5430 3075 c0 -23 4 -25 45 -25 l45 0 0 -130 0 -130 30 0 30 0 0 130
0 130 45 0 c41 0 45 2 45 25 l0 25 -120 0 -120 0 0 -25z"/>
<path d="M5771 3078 c-5 -13 -30 -77 -56 -143 -26 -66 -49 -126 -52 -132 -3
-9 5 -13 25 -13 26 0 32 5 42 35 l12 35 68 0 68 0 12 -35 c10 -30 16 -35 42
-35 20 0 28 4 25 13 -116 293 -118 297 -148 297 -21 0 -32 -6 -38 -22z m54
-85 c33 -79 32 -83 -18 -83 l-46 0 22 60 c12 33 23 60 24 60 2 0 10 -17 18
-37z"/>
<path d="M2050 2940 l0 -150 110 0 110 0 0 25 c0 25 -1 25 -80 25 l-80 0 0
125 0 125 -30 0 -30 0 0 -150z"/>
<path d="M6010 2940 l0 -150 105 0 105 0 0 25 c0 25 -1 25 -80 25 l-80 0 0
125 0 125 -25 0 -25 0 0 -150z"/>
</g>
</svg>
