<?xml version="1.0" standalone="no"?>
<!DOCTYPE svg PUBLIC "-//W3C//DTD SVG 20010904//EN"
 "http://www.w3.org/TR/2001/REC-SVG-20010904/DTD/svg10.dtd">
<svg version="1.0" xmlns="http://www.w3.org/2000/svg"
 width="1366.000000pt" height="768.000000pt" viewBox="0 0 1366.000000 768.000000"
 preserveAspectRatio="xMidYMid meet">

<g transform="translate(0.000000,768.000000) scale(0.100000,-0.100000)"
fill="#000000" stroke="none">
<path d="M6736 6111 c-4 -5 11 -12 32 -16 59 -10 74 -23 35 -31 -18 -4 -33
-10 -33 -15 0 -12 5 -11 47 6 19 8 49 15 66 15 l31 0 -34 25 c-26 19 -46 25
-86 25 -29 0 -55 -4 -58 -9z"/>
<path d="M6490 6094 c-138 -18 -272 -49 -395 -91 -117 -41 -241 -106 -247
-131 -3 -10 -22 -23 -44 -29 -179 -53 -249 -79 -263 -95 -9 -11 -37 -35 -63
-55 -27 -19 -48 -41 -48 -48 0 -8 -10 -15 -22 -17 -20 -3 -23 -8 -20 -41 3
-33 -1 -40 -27 -55 -25 -14 -47 -49 -38 -58 1 -2 18 10 36 27 51 44 56 35 15
-26 -14 -21 -24 -47 -22 -59 3 -18 6 -16 22 14 10 19 47 65 82 102 35 36 64
73 64 81 0 29 157 147 196 147 3 0 -16 -21 -43 -46 -26 -25 -41 -42 -33 -38
48 24 169 113 226 167 l67 62 66 1 c77 1 104 12 121 53 7 19 25 35 48 44 35
14 38 14 46 -4 14 -30 60 -24 218 27 109 34 158 45 210 46 60 0 68 3 68 19 0
17 -7 19 -57 18 -32 -1 -105 -8 -163 -15z"/>
<path d="M7047 6088 c-7 -4 -36 -15 -66 -24 -39 -11 -51 -18 -43 -26 8 -8 22
-8 51 2 49 16 69 6 44 -22 -18 -20 -18 -21 7 -13 14 4 33 13 44 21 20 14 45 9
62 -13 10 -11 21 -10 68 8 68 26 124 19 141 -18 11 -26 33 -33 56 -19 12 6 36
2 83 -17 36 -15 73 -27 81 -27 22 0 92 -47 105 -69 9 -18 14 -19 42 -9 l33 12
-28 11 c-15 6 -37 26 -47 43 -12 19 -28 32 -39 32 -34 0 -185 51 -206 70 -31
27 -61 33 -173 34 -65 1 -105 5 -110 12 -8 14 -88 23 -105 12z"/>
<path d="M6760 6000 c0 -5 15 -10 33 -10 24 0 28 3 17 10 -20 13 -50 13 -50 0z"/>
<path d="M7670 5810 c0 -5 5 -10 10 -10 6 0 10 5 10 10 0 6 -4 10 -10 10 -5 0
-10 -4 -10 -10z"/>
<path d="M7826 5812 c5 -4 35 -28 67 -52 33 -24 56 -49 53 -56 -3 -8 7 -15 27
-20 18 -3 43 -12 57 -19 73 -37 72 -25 -4 46 -43 41 -93 82 -110 91 -31 17
-109 25 -90 10z"/>
<path d="M7856 5725 c10 -8 24 -14 29 -14 6 0 1 6 -9 14 -11 8 -24 15 -30 15
-5 0 -1 -7 10 -15z"/>
<path d="M8060 5615 c7 -8 17 -12 22 -9 6 4 5 10 -3 15 -22 14 -33 10 -19 -6z"/>
<path d="M5231 5465 c-134 -129 -225 -250 -320 -425 -22 -41 -41 -68 -41 -60
0 27 -22 -6 -39 -62 -11 -34 -25 -57 -39 -63 -16 -7 -32 -40 -61 -120 -49
-139 -55 -169 -41 -195 9 -17 7 -26 -14 -51 -37 -44 -55 -115 -67 -273 -10
-122 -9 -141 4 -151 11 -8 16 -35 19 -98 3 -90 -8 -110 -27 -49 -13 47 -23 39
-19 -15 2 -27 5 -109 8 -183 5 -143 21 -213 57 -246 15 -13 19 -30 19 -82 0
-54 2 -63 14 -53 11 9 15 8 20 -5 11 -28 6 -62 -9 -68 -8 -3 -15 -11 -15 -18
0 -28 123 -229 161 -263 36 -33 40 -40 35 -69 -5 -27 0 -42 28 -83 19 -27 48
-77 64 -109 17 -33 37 -66 46 -73 9 -8 16 -17 16 -22 0 -15 -19 -10 -40 11
-13 13 -20 15 -20 7 0 -27 60 -105 169 -222 92 -98 119 -121 149 -128 38 -7
72 -38 72 -63 0 -8 -7 -14 -15 -14 -8 0 -15 -4 -15 -9 0 -16 82 -83 180 -147
54 -35 101 -68 105 -74 12 -20 142 -90 167 -90 39 0 43 17 6 24 -39 8 -98 46
-98 64 0 16 16 15 45 -4 13 -9 32 -14 42 -11 14 3 9 8 -18 20 -39 17 -65 42
-52 50 5 3 28 -3 52 -14 47 -21 65 -24 57 -10 -3 4 -19 11 -36 14 -31 7 -42
38 -18 53 7 4 -8 13 -35 21 -37 11 -59 28 -113 88 -37 41 -79 94 -93 118 -13
23 -28 44 -32 47 -4 3 -12 17 -17 30 -14 36 -102 150 -116 150 -14 0 -87 68
-139 130 -21 25 -33 35 -27 23 8 -18 7 -24 -9 -32 -22 -12 -31 -5 -31 25 0 27
-17 41 -32 26 -7 -7 6 -28 42 -66 29 -31 49 -56 43 -56 -5 0 -14 5 -21 12 -29
29 -9 -14 28 -61 41 -52 106 -106 148 -122 13 -5 22 -15 20 -21 -3 -18 38 -95
54 -101 9 -4 8 -6 -3 -6 -38 -2 -193 126 -239 197 -19 30 -70 92 -113 139 -43
47 -82 94 -88 104 -9 17 -5 19 36 19 51 0 56 10 29 66 -10 21 -34 45 -61 61
-54 31 -66 57 -46 96 9 18 12 41 8 60 l-6 32 19 -24 c12 -14 22 -20 26 -13 10
17 -11 60 -33 67 -12 3 -21 11 -21 16 0 5 -5 9 -11 9 -8 0 -9 -14 -5 -42 l7
-42 -23 21 c-13 11 -34 26 -48 33 -37 19 -44 37 -46 115 -2 91 -39 220 -76
263 -30 35 -41 85 -13 62 8 -6 23 -9 34 -5 16 5 22 -1 30 -32 6 -21 11 -44 11
-52 0 -11 4 -9 14 4 12 16 16 17 30 6 22 -18 20 -10 -9 51 -14 28 -25 62 -25
75 0 29 -29 103 -41 103 -5 0 -3 -11 3 -25 6 -14 8 -28 4 -32 -11 -12 -66 60
-60 78 2 9 -2 58 -10 109 -9 51 -13 97 -10 101 3 5 0 9 -7 9 -8 0 -9 10 -5 31
3 17 1 110 -5 206 -6 96 -8 192 -4 212 l7 36 14 -34 c8 -18 14 -42 14 -53 0
-16 3 -18 14 -9 7 6 28 10 47 9 30 -3 34 0 43 31 9 30 7 36 -13 52 -30 25 -40
24 -51 -3 -8 -20 -9 -19 -9 12 -1 19 14 78 33 130 39 110 105 270 106 255 0
-5 7 -1 15 9 8 11 15 39 15 61 0 64 85 170 115 145 7 -5 15 -7 18 -3 12 11 7
23 -9 23 -12 0 -14 4 -7 13 6 6 13 36 16 65 3 29 9 57 12 63 12 19 148 109
166 109 23 0 62 55 62 89 0 14 -4 43 -8 63 -7 34 -4 40 25 68 17 16 30 35 28
42 -3 7 -45 -27 -97 -77z"/>
<path d="M8220 5543 c0 -7 5 -15 10 -18 6 -3 10 -15 10 -25 0 -20 25 -50 41
-50 17 0 -1 43 -32 75 -16 16 -29 24 -29 18z"/>
<path d="M8390 5385 c7 -8 10 -21 7 -29 -10 -27 67 -76 87 -56 8 9 -1 22 -39
56 -48 42 -81 60 -55 29z"/>
<path d="M8460 5236 c0 -9 16 -26 35 -38 41 -23 85 -100 85 -146 0 -22 9 -37
35 -56 20 -15 33 -30 31 -34 -6 -10 23 -76 30 -70 7 8 -52 174 -77 216 -10 18
-19 39 -19 47 0 31 -23 61 -53 71 -18 6 -40 14 -49 19 -13 5 -18 3 -18 -9z"/>
<path d="M5074 5125 c-4 -10 -1 -21 7 -26 23 -14 31 -10 27 13 -4 27 -26 35
-34 13z"/>
<path d="M8730 4804 c0 -13 31 -61 50 -79 12 -11 26 -28 32 -39 9 -16 7 -18
-6 -13 -19 8 -19 3 -4 -62 6 -28 15 -48 20 -45 4 3 8 37 8 75 0 63 -3 73 -26
94 -15 14 -24 31 -21 38 3 8 -6 18 -24 24 -16 6 -29 9 -29 7z"/>
<path d="M8823 4414 l22 -45 8 31 c11 42 6 52 -25 56 l-27 3 22 -45z"/>
<path d="M8830 4305 c0 -20 40 -85 53 -85 19 0 4 49 -23 75 -26 25 -30 26 -30
10z"/>
<path d="M4771 3950 c0 -41 4 -82 9 -90 12 -19 12 53 1 120 -8 42 -9 40 -10
-30z"/>
<path d="M8860 3978 c1 -7 8 -24 16 -38 l15 -25 -5 25 c-3 14 -6 31 -6 38 0 6
-4 12 -10 12 -5 0 -10 -6 -10 -12z"/>
<path d="M9079 3874 c-10 -28 -4 -64 12 -64 5 0 9 20 9 45 0 51 -6 57 -21 19z"/>
<path d="M6949 3873 c-36 -4 -36 -5 -43 -56 -3 -29 -6 -86 -6 -128 l0 -76 161
5 c98 3 164 1 170 -5 7 -7 4 -35 -7 -83 l-16 -73 -67 7 c-36 3 -103 15 -149
27 -46 11 -85 19 -88 17 -2 -2 0 -24 4 -49 l8 -44 54 -8 c59 -9 307 -4 317 7
12 12 27 236 17 244 -5 5 -56 4 -114 -1 -121 -11 -220 -3 -220 18 0 8 5 36 11
64 l10 50 52 11 c48 9 205 30 235 30 6 0 12 8 12 19 0 15 -10 19 -52 25 -55 6
-225 6 -289 -1z"/>
<path d="M7408 3873 c-35 -4 -37 -7 -43 -47 -9 -58 -2 -402 8 -413 10 -10 362
-11 372 -1 15 14 26 236 17 341 -5 59 -12 110 -15 114 -8 7 -286 13 -339 6z
m299 -140 c-4 -54 -14 -137 -23 -185 l-16 -88 -37 0 c-43 0 -141 16 -188 31
-39 13 -40 21 -17 178 9 68 21 110 30 118 8 6 52 16 97 22 45 6 93 13 107 15
56 8 53 13 47 -91z"/>
<path d="M5543 3843 c-10 -36 -10 -370 0 -405 4 -16 13 -28 21 -28 9 0 15 26
20 96 4 53 9 101 12 105 3 5 66 9 140 9 155 0 144 12 114 -124 -11 -49 -18
-91 -16 -93 2 -3 24 -1 49 2 44 7 45 7 51 52 8 61 7 318 -2 368 -5 25 -13 40
-22 40 -12 0 -17 -21 -22 -99 -4 -54 -10 -101 -13 -105 -9 -8 -262 -8 -270 1
-6 6 13 118 31 186 6 20 3 22 -40 22 -41 0 -46 -3 -53 -27z"/>
<path d="M6012 3853 c-10 -25 -9 -430 1 -440 11 -11 363 -11 374 0 10 11 17
332 8 403 -4 37 -11 54 -21 54 -8 0 -14 -3 -14 -7 -3 -65 -23 -233 -36 -307
l-17 -96 -46 1 c-25 0 -82 8 -126 17 l-80 17 2 80 c1 66 24 197 49 278 5 14
-1 17 -41 17 -34 0 -47 -4 -53 -17z"/>
<path d="M6472 3853 c-4 -10 -7 -109 -7 -220 0 -152 3 -205 13 -215 20 -20
359 -19 372 2 16 26 11 57 -12 72 -66 43 -235 230 -297 326 -34 54 -56 65 -69
35z m161 -205 c79 -89 137 -165 137 -181 0 -19 -235 14 -257 37 -5 5 13 160
24 204 3 12 9 22 13 22 5 0 42 -37 83 -82z"/>
<path d="M7834 3859 c-11 -18 -16 -317 -7 -384 6 -45 12 -61 26 -63 14 -3 17
4 17 47 0 72 21 247 32 263 10 15 71 -46 170 -171 56 -70 59 -76 53 -114 l-7
-40 43 7 c24 4 48 11 52 15 12 12 20 304 10 381 -6 47 -12 66 -24 68 -13 2
-18 -19 -28 -136 -6 -77 -15 -152 -20 -168 l-7 -29 -68 70 c-37 39 -87 97
-112 130 -41 53 -45 63 -40 97 l6 38 -44 0 c-25 0 -48 -5 -52 -11z"/>
<path d="M8996 3788 c-16 -57 -24 -124 -19 -166 6 -55 -4 -142 -16 -142 -5 0
-11 18 -15 39 -9 59 -22 58 -46 -6 -32 -86 -51 -177 -54 -262 -3 -82 -12 -114
-27 -90 -4 8 -6 41 -3 74 l5 60 -27 -55 c-128 -259 -166 -329 -229 -425 -40
-60 -99 -142 -130 -181 -53 -66 -58 -76 -60 -124 -1 -38 -7 -57 -20 -66 -15
-11 -16 -16 -5 -28 10 -13 5 -23 -28 -61 -23 -26 -55 -81 -73 -123 -40 -97
-58 -125 -77 -117 -8 3 -57 -27 -119 -75 -58 -44 -114 -80 -124 -80 -11 0 -19
2 -19 4 0 3 27 26 60 51 33 25 60 53 60 61 0 17 -12 18 -28 2 -19 -19 -21 -7
-7 45 13 50 8 58 -19 29 -9 -11 -56 -38 -104 -61 -48 -23 -114 -55 -147 -72
l-60 -30 59 55 59 54 -47 -21 c-27 -13 -46 -29 -46 -38 0 -15 -19 -29 -37 -29
-3 0 -3 14 1 31 6 30 5 31 -22 24 -15 -3 -42 -18 -61 -32 -32 -25 -33 -28 -27
-75 6 -46 5 -51 -25 -79 -28 -26 -38 -29 -68 -24 -28 5 -48 0 -84 -20 -53 -27
-68 -32 -49 -13 15 15 16 48 1 48 -6 0 -23 -9 -37 -21 -20 -15 -35 -19 -61
-14 -18 4 -64 6 -102 6 -38 0 -69 2 -69 3 0 2 16 14 36 25 20 12 35 24 32 26
-8 8 -198 -52 -216 -69 -22 -19 -69 -20 -196 -5 -105 12 -125 17 -110 27 6 4
13 15 17 25 8 21 -1 21 -109 2 -45 -8 -152 -17 -238 -21 l-156 -7 0 36 c0 20
5 39 10 42 18 11 11 24 -20 40 -26 13 -45 14 -115 7 -51 -6 -96 -17 -112 -28
l-28 -18 65 -30 c36 -17 79 -36 95 -42 l30 -12 -32 -1 c-18 -1 -55 8 -83 19
-59 23 -70 25 -70 8 1 -27 91 -80 168 -98 42 -10 78 -23 80 -29 7 -21 60 -41
107 -41 25 0 77 -5 115 -11 61 -9 74 -8 114 9 25 11 71 26 103 32 79 16 95 26
87 52 -5 16 -2 19 13 14 10 -3 51 -8 91 -12 39 -4 72 -11 72 -16 0 -6 -17 -27
-38 -48 -36 -36 -91 -60 -140 -60 -15 0 -22 -5 -19 -12 2 -9 25 -13 63 -13 74
0 148 30 141 56 -6 21 16 43 58 59 17 7 93 14 170 15 87 2 158 9 188 18 69 22
62 -2 -12 -42 -58 -31 -108 -39 -126 -22 -6 5 -24 4 -45 -2 -27 -10 -35 -18
-36 -37 0 -42 -12 -50 -70 -50 -59 0 -70 14 -26 32 l27 12 -32 4 c-24 2 -46
-6 -89 -35 l-58 -38 45 -3 c90 -7 449 69 744 158 269 81 322 104 494 212 241
152 475 374 641 607 200 283 343 642 380 956 13 111 9 159 -20 215 -22 44 -38
58 -44 38z"/>
<path d="M4890 3363 c0 -41 41 -55 76 -27 12 10 14 14 4 11 -8 -3 -30 4 -47
15 -32 19 -33 19 -33 1z"/>
<path d="M5330 3234 c-6 -14 -10 -38 -10 -53 l0 -27 68 17 c37 10 78 18 91 18
l24 1 -5 -203 -5 -204 26 1 c23 1 26 5 23 31 -6 78 -6 374 0 381 5 4 44 9 88
12 68 4 80 7 80 22 0 26 -27 30 -208 30 l-162 0 -10 -26z"/>
<path d="M5761 3251 c-10 -7 -15 -47 -18 -172 -5 -188 4 -284 27 -284 12 0 16
20 20 97 3 53 9 100 13 105 10 10 262 11 272 1 4 -4 -2 -48 -14 -98 -12 -50
-21 -96 -21 -101 0 -5 20 -9 45 -9 40 0 45 3 52 28 13 47 9 394 -5 420 -12 21
-17 22 -185 22 -95 0 -178 -4 -186 -9z m335 -118 c-4 -42 -9 -80 -12 -85 -8
-13 -262 -10 -270 3 -3 6 -1 37 6 69 l12 58 92 15 c50 8 111 15 135 16 l44 1
-7 -77z"/>
<path d="M6243 3253 c-33 -6 -37 -34 -37 -238 0 -182 7 -225 39 -225 7 0 24
17 36 38 45 75 149 199 233 280 70 67 86 88 86 112 0 55 -33 38 -93 -47 -30
-43 -98 -123 -151 -178 l-97 -100 5 71 c5 63 23 175 41 262 7 29 5 32 -16 31
-13 -1 -34 -4 -46 -6z"/>
<path d="M6661 3251 c-12 -7 -16 -46 -19 -178 -4 -189 5 -278 28 -278 12 0 16
20 21 97 3 54 9 101 13 105 10 10 262 10 271 1 4 -4 -2 -49 -14 -100 -12 -51
-21 -96 -21 -100 0 -5 17 -8 39 -8 64 0 66 7 66 237 0 191 -1 206 -19 219 -15
11 -58 14 -185 14 -91 0 -172 -4 -180 -9z m334 -118 c-4 -43 -9 -81 -12 -85
-2 -5 -65 -8 -140 -8 l-135 0 7 48 c13 95 7 89 108 105 51 8 112 15 135 16
l44 1 -7 -77z"/>
<path d="M7119 3244 c-10 -12 -13 -67 -13 -219 -1 -181 1 -206 16 -222 10 -9
20 -15 22 -12 3 2 8 50 12 106 l7 102 64 7 c77 8 76 9 169 -123 72 -102 97
-115 101 -53 2 31 -4 41 -55 85 -31 27 -65 59 -75 72 l-18 22 82 -6 82 -6 -5
122 c-3 92 -8 125 -19 132 -8 5 -91 9 -185 9 -144 0 -174 -3 -185 -16z m338
-109 c-3 -41 -8 -79 -12 -85 -8 -12 -261 -14 -269 -1 -9 15 16 122 30 128 24
9 169 31 213 32 l44 1 -6 -75z"/>
<path d="M7590 3250 c-13 -8 -15 -44 -15 -224 0 -118 4 -218 8 -223 12 -11
349 -15 366 -4 8 5 11 15 8 23 -4 11 -30 17 -94 21 -48 3 -123 13 -165 23
l-78 17 0 53 c0 29 5 56 10 59 6 4 44 9 86 12 97 8 93 26 -7 33 -41 3 -73 7
-73 10 1 3 5 28 8 55 4 28 10 56 14 62 8 13 188 43 256 43 38 0 46 3 46 19 0
10 -7 22 -16 25 -26 10 -338 7 -354 -4z"/>
<path d="M8041 3246 c-7 -8 -13 -60 -14 -132 l-2 -118 55 5 c76 6 268 4 275
-3 6 -5 -21 -147 -29 -155 -7 -7 -151 17 -228 37 l-68 18 0 -48 c0 -45 2 -49
28 -54 30 -6 163 -10 263 -8 95 3 97 6 105 143 l7 116 -166 -5 c-191 -5 -186
-7 -165 79 l13 54 60 12 c33 7 100 16 148 19 91 7 113 18 82 41 -27 19 -348
19 -364 -1z"/>
<path d="M5158 2840 c32 -29 65 -39 76 -21 8 12 -30 44 -46 38 -7 -2 -24 0
-38 5 -23 8 -22 6 8 -22z"/>
<path d="M5275 2730 c3 -5 8 -10 11 -10 2 0 4 5 4 10 0 6 -5 10 -11 10 -5 0
-7 -4 -4 -10z"/>
<path d="M5320 2671 c0 -5 5 -13 10 -16 6 -3 10 -2 10 4 0 5 -4 13 -10 16 -5
3 -10 2 -10 -4z"/>
<path d="M5540 2355 c14 -16 40 -20 40 -6 0 9 -24 21 -42 21 -6 0 -6 -6 2 -15z"/>
<path d="M8104 2315 c-10 -8 -14 -14 -9 -14 6 0 19 6 29 14 11 8 15 15 10 15
-6 0 -19 -7 -30 -15z"/>
<path d="M7970 2245 c-22 -24 -23 -25 -3 -25 11 0 25 10 31 25 6 14 8 25 4 25
-5 0 -19 -11 -32 -25z"/>
<path d="M5880 2131 c0 -21 55 -42 189 -76 36 -8 70 -20 77 -26 7 -6 23 -7 35
-4 22 7 22 8 4 21 -10 8 -35 14 -56 14 -43 0 -93 17 -179 59 -34 17 -64 31
-66 31 -2 0 -4 -9 -4 -19z"/>
<path d="M6220 1942 c0 -17 26 -32 55 -31 16 0 23 3 15 6 -8 3 -19 12 -23 19
-9 15 -47 19 -47 6z"/>
<path d="M7453 1935 c-9 -25 4 -29 17 -6 7 15 7 21 0 21 -6 0 -13 -7 -17 -15z"/>
<path d="M6728 1909 c-10 -5 -18 -18 -18 -29 0 -10 -6 -21 -12 -23 -7 -3 -1
-6 14 -6 26 -1 88 41 88 60 0 12 -51 11 -72 -2z"/>
<path d="M7483 1693 c9 -2 25 -2 35 0 9 3 1 5 -18 5 -19 0 -27 -2 -17 -5z"/>
</g>
</svg>
